<svg width="128" height="128" viewBox="0 0 128 128" fill="none" xmlns="http://www.w3.org/2000/svg">
<path d="M64.3333 97.6667C82.7428 97.6667 97.6667 82.7428 97.6667 64.3333C97.6667 45.9238 82.7428 31 64.3333 31C45.9238 31 31 45.9238 31 64.3333C31 82.7428 45.9238 97.6667 64.3333 97.6667Z" stroke="#FF9C59" stroke-width="4" stroke-linecap="round" stroke-linejoin="round"/>
<path d="M54.6334 54.3333C55.4171 52.1055 56.9639 50.227 58.9999 49.0304C61.0359 47.8338 63.4297 47.3964 65.7573 47.7957C68.0849 48.1949 70.1961 49.4051 71.717 51.2117C73.2379 53.0184 74.0703 55.3051 74.0668 57.6667C74.0668 64.3333 64.0668 67.6667 64.0668 67.6667" stroke="#FF9C59" stroke-width="4" stroke-linecap="round" stroke-linejoin="round"/>
<path d="M64.3334 81H64.3667" stroke="#FF9C59" stroke-width="4" stroke-linecap="round" stroke-linejoin="round"/>
</svg>
